<svg version="1.1" xmlns="http://www.w3.org/2000/svg" width="592" height="592" viewBox="0 0 296 296"><g transform="scale(1.156,1.156)"><rect fill="#CC0000" x="0" y="0" rx="16" ry="16" width="256" height="256" /><rect fill="#ffffff" x="9" y="9" rx="12" ry="12" width="238" height="238" /></g><g transform="translate(20,20) scale(0.125,0.125)"><g transform="translate(0,0)"><g transform="scale(1,-1) translate(0,-820)"><path stroke="none" fill="#CC0000" d="M36 592Q36 686 72 730Q108 773 186 773H190Q269 773 305 730Q341 686 341 592V31Q341 -62 306 -104Q271 -147 194 -147H72Q45 -147 45 -111Q45 -75 72 -75H203Q237 -75 253 -48Q269 -22 269 33V592Q269 648 258 673Q246 698 221 698H156Q131 698 120 673Q110 648 110 592V45Q110 18 73 18Q36 18 36 45V592V592ZM458 736Q458 764 494 764Q530 764 530 736V-107Q530 -134 494 -134Q458 -134 458 -107V736V736ZM645 592Q645 687 680 730Q716 773 797 773H801Q883 773 920 730Q956 687 956 592V45Q956 18 920 18Q884 18 884 45V592Q884 647 872 673Q860 698 836 698H767Q742 698 730 673Q719 648 719 592V33Q719 -23 734 -48Q750 -75 785 -75H916Q943 -75 943 -111Q943 -147 916 -147H791Q715 -147 680 -104Q645 -62 645 31V592V592V593V592Z" /></g></g><g transform="translate(1024,0)"><g transform="scale(1,-1) translate(0,-820)"><path stroke="none" fill="#CC0000" d="M424 708Q461 746 494 746Q526 746 562 708V708H777Q871 708 914 665Q956 622 956 527V-107Q956 -134 924 -134Q892 -134 892 -107V533Q892 589 866 615Q839 640 783 640H211Q155 640 129 615Q104 589 104 533V-107Q104 -134 70 -134Q36 -134 36 -107V527Q36 622 79 665Q122 708 217 708H424V708V708ZM221 598V580Q221 569 228 564Q235 560 253 560H277V598Q277 626 309 626Q341 626 341 598V560H367Q388 560 398 564Q408 569 408 580V598Q408 626 437 626Q466 626 466 598V566Q466 537 437 523Q408 509 345 509H343V489H657V509H655Q586 509 554 523Q522 537 522 566V598Q522 626 554 626Q586 626 586 598V580Q586 569 595 564Q604 560 625 560H653V598Q653 626 683 626Q713 626 713 598V560H735Q753 560 761 564Q769 569 769 580V598Q769 626 801 626Q834 626 834 598V566Q834 537 805 523Q777 509 715 509H713V489H715Q774 489 801 474Q828 459 828 425V421Q828 388 791 372Q755 357 677 357H613Q566 357 545 353Q524 350 524 342V326Q524 302 498 302Q472 302 472 326V361Q472 389 506 402Q539 415 615 415H675Q717 415 741 416Q761 417 761 419V429Q761 430 735 431Q717 431 653 431H464V429Q464 391 426 374Q388 357 307 357H174Q146 357 146 386Q146 415 174 415H323Q361 415 381 418Q399 420 399 425V431H170Q142 431 142 459Q142 487 170 487H279V509H277Q216 509 188 523Q160 537 160 566V598Q160 626 190 626Q221 626 221 598V598V598ZM221 322V296Q221 284 228 278Q235 272 253 272H277V318Q277 347 309 347Q341 347 341 318V272H367Q388 272 398 278Q408 283 408 294V316Q408 345 437 345Q466 345 466 316V282Q466 251 436 236Q406 222 339 222H337V202H655V218H653Q587 218 557 233Q528 249 528 282V320Q528 349 557 349Q586 349 586 320V294Q586 283 595 278Q604 272 625 272H653V322Q653 351 683 351Q713 351 713 322V272H735Q753 272 761 278Q769 283 769 294V316Q769 345 801 345Q834 345 834 316V282Q834 251 805 236Q776 222 713 222H711V200H818Q846 200 847 174Q849 148 822 148H524V127H824Q851 127 851 100Q851 73 824 73H526V53H826Q853 53 853 29Q853 5 826 5H526V-16H655Q750 -16 792 -29Q834 -43 834 -73V-107Q834 -134 801 -134Q769 -134 769 -107V-87Q769 -76 756 -72Q743 -69 715 -69H677V-99Q677 -126 647 -126Q617 -126 617 -99V-69H524V-107Q524 -134 498 -134Q472 -134 472 -107V-69H371V-107Q371 -134 341 -134Q311 -134 311 -107V-69H221V-107Q221 -134 190 -134Q160 -134 160 -107V37Q160 124 187 164Q215 204 275 204H277V222H275Q215 222 187 237Q160 252 160 284V322Q160 351 190 351Q221 351 221 322V322V322ZM225 137V127H470V148H333Q274 148 251 145Q225 143 225 137V137V137ZM225 55H462V75H225V55V55ZM223 -14H468V5H223V-14V-14V-13V-14Z" /></g></g><g transform="translate(0,1024)"><g transform="scale(1,-1) translate(0,-820)"><path stroke="none" fill="#CC0000" d="M357 720H359Q448 720 489 677Q530 634 530 539V0Q530 -27 494 -27Q458 -27 458 0V533Q458 589 448 615Q439 640 420 640H393V-75H508Q535 -75 535 -111Q535 -147 508 -147H56Q29 -147 29 -111Q29 -75 56 -75H176V640H148Q127 640 119 615Q110 590 110 533V0Q110 -27 73 -27Q36 -27 36 0V539Q36 634 79 677Q122 720 217 720H221V720Q257 755 289 755Q321 755 357 720V720V720ZM649 736V192H723V736Q723 764 761 764Q799 764 799 736V560H834Q859 560 872 574Q884 588 884 620V736Q884 764 920 764Q956 764 956 736V620Q956 546 920 513Q883 479 804 479H801V192H884V405Q884 433 920 433Q956 433 956 405V31Q956 -62 914 -104Q871 -147 777 -147H747Q653 -147 610 -104Q568 -62 568 31V736Q568 764 609 764Q649 764 649 736V736V736ZM257 640V-75H321V640H257V640ZM649 119V33Q649 -22 665 -48Q681 -75 717 -75H814Q849 -75 867 -48Q884 -21 884 33V119H649V119V120V119Z" /></g></g><g transform="translate(1024,1024)"><g transform="scale(1,-1) translate(0,-820)"><path stroke="none" fill="#CC0000" d="M110 759V527H213V759Q213 786 249 786Q285 786 285 759V531H393V757Q393 784 430 784Q466 784 466 757V31Q466 -62 423 -104Q380 -147 287 -147H217Q122 -147 79 -104Q36 -62 36 31V759Q36 786 73 786Q110 786 110 759V759V759ZM516 600Q516 695 558 738Q600 781 695 781H916Q943 781 943 740Q943 700 916 700H697Q643 700 619 686Q594 672 594 640V558Q594 526 620 512Q645 497 701 497H777Q871 497 914 455Q956 413 956 318V-123Q956 -150 920 -150Q884 -150 884 -123V308Q884 364 870 389Q855 415 824 415H783V31Q783 -62 752 -104Q720 -147 651 -147H542Q514 -147 514 -111Q514 -75 542 -75H653Q683 -75 697 -48Q711 -22 711 33V131H542Q514 131 514 171Q514 210 542 210H711V415H695Q600 415 558 458Q516 500 516 594V600V600ZM198 447L196 445H110V230H391V449H303L301 451Q277 467 252 466Q227 465 198 447V447V447ZM110 148V33Q110 -22 129 -48Q148 -75 192 -75H309Q352 -75 371 -48Q391 -22 391 33V148H110V148V149V148Z" /></g></g></g></svg>