<svg version="1.1" xmlns="http://www.w3.org/2000/svg" width="444" height="444" viewBox="0 0 222 222"><g transform="scale(0.867,0.867)"><rect fill="#cc0000" x="0" y="0" rx="16" ry="16" width="256" height="256" /><rect fill="#ffffff" x="9" y="9" rx="12" ry="12" width="238" height="238" /></g><g transform="translate(15,15) scale(0.094,0.094)"><g transform="translate(0,0)"><g transform="scale(1,-1) translate(0,-820)"><path stroke="none" fill="#cc0000" d="M110 714V212Q110 187 121 176Q132 164 156 164H458V706Q458 762 494 762Q530 762 530 706V351H836Q860 351 872 363Q884 375 884 399V706Q884 762 920 762Q956 762 956 706V357Q956 316 937 297Q919 278 878 278H530V-75H898Q954 -75 954 -115Q954 -155 898 -155H102Q46 -155 46 -115Q46 -75 102 -75H458V83H114Q73 83 55 102Q36 121 36 162V714Q36 770 73 770Q110 770 110 714V714V714V715V714Z" /></g></g><g transform="translate(1024,0)"><g transform="scale(1,-1) translate(0,-820)"><path stroke="none" fill="#cc0000" d="M86 781H900Q956 781 956 740Q956 700 900 700H713V648H878Q919 648 937 630Q956 611 956 570V-91Q956 -146 920 -146Q884 -146 884 -91V527Q884 551 872 563Q860 574 836 574H713V537Q713 497 694 478Q675 459 635 459H355Q313 459 295 478Q277 496 277 537V574H156Q132 574 121 563Q110 552 110 527V-91Q110 -146 73 -146Q36 -146 36 -91V570Q36 611 55 630Q73 648 114 648H277V698H86Q30 698 30 739Q30 781 86 781V781V781ZM349 698V648H637V698H349V698ZM349 574V556Q349 543 360 537Q371 531 395 531H588Q612 531 624 537Q637 543 637 556V574H349V574ZM178 336Q178 379 196 397Q215 415 257 415H739Q780 415 799 397Q818 378 818 336V53Q818 11 799 -6Q780 -24 739 -24H586V-46Q586 -60 597 -67Q609 -75 633 -75H763Q819 -75 819 -111Q819 -147 763 -147H594Q553 -147 534 -128Q516 -110 516 -69V-24H474V-69Q474 -109 455 -128Q436 -147 395 -147H235Q177 -147 177 -111Q177 -75 235 -75H351Q375 -75 387 -67Q399 -60 399 -46V-24H257Q215 -24 196 -6Q178 11 178 53V336V336ZM251 310V292H741V310Q741 323 729 328Q717 334 693 334H297Q272 334 262 328Q251 323 251 310V310V310ZM253 222V172H743V222H253V222ZM253 95V75Q253 61 264 54Q275 47 299 47H699Q722 47 735 54Q747 61 747 75V95H253V95V96V95Z" /></g></g><g transform="translate(0,1024)"><g transform="scale(1,-1) translate(0,-820)"><path stroke="none" fill="#cc0000" d="M227 781H878Q919 781 937 762Q956 743 956 702V535Q956 495 937 476Q919 457 878 457H287Q262 457 252 452Q241 446 241 433V397Q241 385 252 379Q263 373 287 373H878Q919 373 937 355Q956 336 956 294V-99Q956 -154 919 -154Q882 -154 882 -99V246Q882 270 870 281Q858 292 834 292H253Q211 292 192 311Q174 330 174 371V451Q174 493 192 511Q211 529 253 529H836Q860 529 872 541Q884 554 884 578V652Q884 676 872 687Q860 698 836 698H590V596Q590 540 553 540Q516 540 516 596V698H227Q169 698 169 739Q169 781 227 781V781V781ZM110 722V220H753Q809 220 809 181Q809 141 753 141H112V71H753Q809 71 809 33Q809 -4 753 -4H110V-30Q110 -50 121 -58Q132 -67 156 -67H755Q813 -67 813 -108Q813 -149 755 -149H114Q73 -149 55 -130Q36 -111 36 -71V722Q36 778 73 778Q110 778 110 722V722V722V723V722Z" /></g></g><g transform="translate(1024,1024)"><g transform="scale(1,-1) translate(0,-820)"><path stroke="none" fill="#cc0000" d="M440 724Q468 753 495 753Q521 752 548 722L562 708H878Q919 708 937 689Q956 671 956 630V-77Q956 -132 924 -132Q892 -132 892 -77V594Q892 618 880 629Q868 640 844 640H150Q126 640 115 629Q104 618 104 594V-77Q104 -132 70 -132Q36 -132 36 -77V630Q36 671 55 689Q73 708 114 708H424L440 724V724ZM221 596V580Q221 569 228 564Q235 560 253 560H277V568Q277 625 309 625Q341 625 341 568V560H367Q388 560 398 564Q408 569 408 580V596Q408 626 437 626Q466 626 466 596V566Q466 537 447 523Q428 509 387 509H343V489H657V509H600Q559 509 540 523Q522 537 522 566V596Q522 626 554 626Q586 626 586 596V580Q586 569 595 564Q604 560 625 560H653V568Q653 625 683 625Q713 625 713 568V560H735Q753 560 761 564Q769 569 769 580V596Q769 626 801 626Q834 626 834 596V566Q834 537 816 523Q797 509 755 509H713V489H749Q790 489 809 474Q828 459 828 425V421Q828 388 809 372Q790 357 749 357H570Q546 357 535 353Q524 350 524 342V326Q524 302 498 302Q472 302 472 326V361Q472 389 490 402Q508 415 550 415H713Q736 415 749 416Q761 417 761 419V429Q761 430 749 431Q741 431 713 431H464V429Q464 391 445 374Q426 357 385 357H205Q147 357 147 386Q147 415 205 415H351Q375 415 387 418Q399 420 399 425V431H201Q143 431 143 459Q143 487 201 487H279V509H239Q197 509 178 523Q160 537 160 566V596Q160 626 190 626Q221 626 221 596V596V596ZM221 314V296Q221 284 228 278Q235 272 253 272H277V288Q277 345 309 345Q341 345 341 288V272H367Q388 272 398 278Q408 283 408 294V310Q408 345 437 345Q466 345 466 310V282Q466 251 447 236Q428 222 387 222H337V202H655V218H607Q565 218 546 233Q528 249 528 282V312Q528 349 557 349Q586 349 586 312V294Q586 283 595 278Q604 272 625 272H653V292Q653 350 683 350Q713 350 713 292V272H735Q753 272 761 278Q769 283 769 294V310Q769 345 801 345Q834 345 834 310V282Q834 250 816 236Q797 222 755 222H711V200H787Q844 200 846 174Q847 148 791 148H524V127H793Q849 127 849 100Q849 73 793 73H526V53H795Q851 53 851 29Q851 5 795 5H526V-16H755Q797 -16 816 -29Q834 -42 834 -73V-103Q834 -133 801 -133Q769 -133 769 -103V-87Q769 -76 757 -72Q746 -69 721 -69H677V-71Q677 -125 647 -125Q617 -125 617 -71V-69H524V-77Q524 -132 498 -132Q472 -132 472 -77V-69H371V-77Q371 -132 341 -132Q311 -132 311 -77V-69H221V-103Q221 -133 190 -133Q160 -133 160 -103V125Q160 168 178 186Q196 204 239 204H277V222H239Q197 222 178 237Q160 252 160 284V314Q160 351 190 351Q221 351 221 314V314V314ZM225 137V127H470V148H273Q247 148 237 145Q225 143 225 137V137V137ZM225 55H462V75H225V55V55ZM223 -14H468V5H223V-14V-14V-13V-14Z" /></g></g></g></svg>
